<svg width="19" height="13" viewBox="0 0 19 13" fill="none" xmlns="http://www.w3.org/2000/svg">
<path d="M18.3546 6.2625C18.3323 6.20312 17.7014 4.80781 16.3061 3.40508C14.4432 1.54961 12.0905 0.5625 9.50025 0.5625C6.91002 0.5625 4.55729 1.54961 2.6944 3.40508C1.29908 4.80781 0.668224 6.20312 0.645958 6.2625C0.612822 6.33729 0.595703 6.41819 0.595703 6.5C0.595703 6.58181 0.612822 6.66271 0.645958 6.7375C0.668224 6.79688 1.29908 8.19219 2.6944 9.59492C4.55729 11.4504 6.91002 12.4375 9.50025 12.4375C12.0905 12.4375 14.4432 11.4504 16.3061 9.59492C17.7014 8.19219 18.3323 6.79688 18.3546 6.7375C18.3877 6.66271 18.4048 6.58181 18.4048 6.5C18.4048 6.41819 18.3877 6.33729 18.3546 6.2625ZM9.50025 3.82812C10.0287 3.82812 10.5453 3.98483 10.9847 4.27842C11.4241 4.57201 11.7665 4.9893 11.9687 5.47752C12.171 5.96574 12.2239 6.50296 12.1208 7.02126C12.0177 7.53955 11.7632 8.01563 11.3896 8.3893C11.0159 8.76297 10.5398 9.01744 10.0215 9.12054C9.50322 9.22363 8.96599 9.17072 8.47777 8.96849C7.98955 8.76626 7.57226 8.4238 7.27867 7.98441C6.98508 7.54503 6.82838 7.02845 6.82838 6.5C6.82838 5.79137 7.10988 5.11177 7.61095 4.6107C8.11203 4.10963 8.79163 3.82812 9.50025 3.82812Z" fill="white"/>
</svg>
