<svg width="20" height="17" viewBox="0 0 20 17" fill="none" xmlns="http://www.w3.org/2000/svg">
<path fill-rule="evenodd" clip-rule="evenodd" d="M1.43213 7.39949C6.53239 5.16504 9.93337 3.69196 11.6351 2.98023C16.4937 0.948123 17.5033 0.595124 18.1613 0.583468C18.3061 0.580904 18.6297 0.616971 18.8393 0.788005C19.0163 0.932423 19.065 1.12751 19.0883 1.26443C19.1116 1.40136 19.1406 1.71327 19.1175 1.957C18.8542 4.7388 17.715 11.4895 17.1354 14.6052C16.8901 15.9235 16.4072 16.3656 15.9397 16.4088C14.9237 16.5028 14.1522 15.7337 13.1682 15.085C11.6284 14.0701 10.7585 13.4382 9.26382 12.4478C7.53648 11.3032 8.65625 10.6741 9.64065 9.64594C9.89828 9.37687 14.3748 5.28255 14.4614 4.91113C14.4722 4.86468 14.4823 4.69153 14.38 4.6001C14.2777 4.50867 14.1267 4.53993 14.0178 4.5648C13.8633 4.60005 11.4034 6.23497 6.6381 9.46958C5.93987 9.9517 5.30743 10.1866 4.74079 10.1743C4.11612 10.1607 2.91449 9.81913 2.0212 9.52715C0.925553 9.16902 0.0547522 8.97967 0.130579 8.37145C0.170075 8.05466 0.603924 7.73067 1.43213 7.39949Z" fill="black"/>
</svg>
