<svg width="20" height="13" viewBox="0 0 20 13" fill="none" xmlns="http://www.w3.org/2000/svg">
<path fill-rule="evenodd" clip-rule="evenodd" d="M3.12582 0.958344H1.04764C0.453741 0.958344 0.334961 1.23734 0.334961 1.54575C0.334961 2.0952 1.03909 4.82253 3.61614 8.4286C5.33323 10.8921 7.7535 12.2273 9.95521 12.2273C11.277 12.2273 11.4404 11.9303 11.4404 11.4207V9.55882C11.4404 8.96571 11.5659 8.84709 11.984 8.84709C12.2928 8.84709 12.8202 9.00083 14.0545 10.188C15.4638 11.5962 15.6956 12.2273 16.4881 12.2273H18.5672C19.1611 12.2273 19.4586 11.9303 19.2866 11.3448C19.0994 10.7621 18.4266 9.91563 17.5334 8.91257C17.0488 8.3413 16.3228 7.72542 16.1023 7.417C15.7935 7.02128 15.8819 6.84573 16.1023 6.49366C16.1023 6.49366 18.6347 2.93124 18.8989 1.72131C19.0319 1.28194 18.8989 0.958344 18.2698 0.958344H16.1916C15.6633 0.958344 15.4191 1.23734 15.287 1.54575C15.287 1.54575 14.2303 4.1184 12.7328 5.78953C12.2481 6.2735 12.0277 6.42818 11.7635 6.42818C11.6314 6.42818 11.4404 6.2735 11.4404 5.83413V1.72131C11.4404 1.19369 11.2874 0.958344 10.8465 0.958344H7.5796C7.24987 0.958344 7.05127 1.20318 7.05127 1.43567C7.05127 1.93578 7.80006 2.05155 7.87703 3.45887V6.51549C7.87703 7.1864 7.75635 7.30787 7.49123 7.30787C6.7871 7.30787 5.07286 4.72289 4.05611 1.76591C3.85656 1.19084 3.657 0.958344 3.12582 0.958344Z" fill="black"/>
</svg>
