<svg width="18" height="18" viewBox="0 0 18 18" fill="none" xmlns="http://www.w3.org/2000/svg">
<path d="M9 1.6991C11.378 1.6991 11.66 1.70801 12.5996 1.75105C15.0132 1.8609 16.1406 3.00609 16.2504 5.40188C16.2935 6.34074 16.3016 6.62277 16.3016 9.00074C16.3016 11.3795 16.2927 11.6607 16.2504 12.5996C16.1398 14.9932 15.0154 16.1406 12.5996 16.2504C11.66 16.2935 11.3795 16.3024 9 16.3024C6.62203 16.3024 6.34 16.2935 5.40113 16.2504C2.9816 16.1398 1.86016 14.9895 1.75031 12.5989C1.70727 11.66 1.69836 11.3787 1.69836 9C1.69836 6.62203 1.70801 6.34074 1.75031 5.40113C1.8609 3.00609 2.98531 1.86016 5.40113 1.75031C6.34074 1.70801 6.62203 1.6991 9 1.6991ZM9 0.09375C6.58121 0.09375 6.2784 0.104141 5.3284 0.147187C2.09395 0.295625 0.296367 2.09023 0.14793 5.32766C0.104141 6.2784 0.09375 6.58121 0.09375 9C0.09375 11.4188 0.104141 11.7223 0.147187 12.6723C0.295625 15.9068 2.09023 17.7044 5.32766 17.8528C6.2784 17.8959 6.58121 17.9062 9 17.9062C11.4188 17.9062 11.7223 17.8959 12.6723 17.8528C15.9038 17.7044 17.7059 15.9098 17.8521 12.6723C17.8959 11.7223 17.9062 11.4188 17.9062 9C17.9062 6.58121 17.8959 6.2784 17.8528 5.3284C17.7073 2.09691 15.9105 0.296367 12.6731 0.14793C11.7223 0.104141 11.4188 0.09375 9 0.09375V0.09375ZM9 4.42664C6.47434 4.42664 4.42664 6.47434 4.42664 9C4.42664 11.5257 6.47434 13.5741 9 13.5741C11.5257 13.5741 13.5734 11.5264 13.5734 9C13.5734 6.47434 11.5257 4.42664 9 4.42664ZM9 11.9688C7.36051 11.9688 6.03125 10.6402 6.03125 9C6.03125 7.36051 7.36051 6.03125 9 6.03125C10.6395 6.03125 11.9688 7.36051 11.9688 9C11.9688 10.6402 10.6395 11.9688 9 11.9688ZM13.7545 3.17754C13.1637 3.17754 12.685 3.65625 12.685 4.24629C12.685 4.83633 13.1637 5.31504 13.7545 5.31504C14.3445 5.31504 14.8225 4.83633 14.8225 4.24629C14.8225 3.65625 14.3445 3.17754 13.7545 3.17754Z" fill="white"/>
</svg>
