<svg width="16" height="14" viewBox="0 0 16 14" fill="none" xmlns="http://www.w3.org/2000/svg">
<path fill-rule="evenodd" clip-rule="evenodd" d="M1.58953 6.09821C5.61523 4.2518 8.2952 3.0249 9.64094 2.42968C13.4711 0.741186 14.2762 0.449647 14.7938 0.4375C14.9089 0.4375 15.1619 0.461795 15.3344 0.607564C15.4725 0.729039 15.507 0.886956 15.53 1.00843C15.553 1.1299 15.576 1.385 15.553 1.57936C15.3459 3.88737 14.4488 9.48734 13.9887 12.0626C13.7932 13.1559 13.4136 13.5203 13.0455 13.5567C12.2404 13.6296 11.6308 12.9979 10.8602 12.4635C9.64094 11.6253 8.96232 11.1029 7.77761 10.2769C6.40887 9.32942 7.29453 8.80708 8.07666 7.95676C8.2837 7.73811 11.8148 4.33683 11.8838 4.03314C11.8953 3.9967 11.8953 3.85093 11.8148 3.77804C11.7343 3.70516 11.6193 3.72945 11.5273 3.75375C11.4007 3.77804 9.46841 5.13856 5.70725 7.82314C5.15515 8.22401 4.66057 8.41837 4.21199 8.40622C3.7174 8.39407 2.77424 8.11468 2.06111 7.87173C1.19846 7.58019 0.508341 7.42228 0.565851 6.91208C0.600357 6.64484 0.945418 6.3776 1.58953 6.09821Z" fill="white"/>
</svg>
