<svg width="20" height="20" viewBox="0 0 20 20" fill="none" xmlns="http://www.w3.org/2000/svg">
<g clip-path="url(#clip0_303_714)">
<path d="M12.2108 6.90626L6.90616 12.2109C6.78927 12.3281 6.72363 12.4869 6.72363 12.6524C6.72363 12.8179 6.78927 12.9766 6.90616 13.0938C7.02431 13.2088 7.18268 13.2731 7.34756 13.2731C7.51245 13.2731 7.67082 13.2088 7.78897 13.0938L13.0937 7.78907C13.2014 7.67018 13.2593 7.51442 13.2553 7.35403C13.2514 7.19365 13.1859 7.04092 13.0724 6.92747C12.959 6.81403 12.8063 6.74855 12.6459 6.7446C12.4855 6.74066 12.3297 6.79854 12.2108 6.90626Z" fill="black"/>
<path d="M10.883 13.5391L8.6721 15.7422C8.3836 16.0344 8.03995 16.2664 7.66108 16.4247C7.28222 16.5831 6.87569 16.6646 6.46507 16.6646C6.05445 16.6646 5.64791 16.5831 5.26905 16.4247C4.89019 16.2664 4.54654 16.0344 4.25804 15.7422C3.67362 15.1564 3.34542 14.3627 3.34542 13.5352C3.34542 12.7077 3.67362 11.914 4.25804 11.3281L6.46116 9.1172C6.56889 8.99831 6.62677 8.84254 6.62282 8.68216C6.61887 8.52177 6.55339 8.36904 6.43995 8.2556C6.3265 8.14215 6.17378 8.07668 6.01339 8.07273C5.853 8.06878 5.69724 8.12666 5.57835 8.23439L3.36741 10.4453C2.5469 11.2658 2.08594 12.3787 2.08594 13.5391C2.08594 14.6995 2.5469 15.8123 3.36741 16.6328C4.18792 17.4533 5.30078 17.9143 6.46116 17.9143C7.62154 17.9143 8.7344 17.4533 9.55491 16.6328L11.7658 14.4219C11.8827 14.3047 11.9484 14.146 11.9484 13.9805C11.9484 13.815 11.8827 13.6562 11.7658 13.5391C11.7084 13.4803 11.6397 13.4335 11.5639 13.4016C11.4881 13.3697 11.4067 13.3533 11.3244 13.3533C11.2422 13.3533 11.1608 13.3697 11.085 13.4016C11.0092 13.4335 10.9405 13.4803 10.883 13.5391Z" fill="black"/>
<path d="M16.6325 3.3672C16.2263 2.96089 15.744 2.63859 15.2131 2.4187C14.6823 2.19881 14.1134 2.08563 13.5388 2.08563C12.9642 2.08563 12.3953 2.19881 11.8645 2.4187C11.3336 2.63859 10.8513 2.96089 10.445 3.3672L8.23411 5.57814C8.12639 5.69703 8.06851 5.85279 8.07246 6.01318C8.0764 6.17356 8.14188 6.32629 8.25532 6.43973C8.36877 6.55318 8.5215 6.61865 8.68188 6.6226C8.84227 6.62655 8.99803 6.56867 9.11692 6.46095L11.3279 4.25782C11.6164 3.96563 11.96 3.73363 12.3389 3.57529C12.7177 3.41695 13.1243 3.33541 13.5349 3.33541C13.9455 3.33541 14.352 3.41695 14.7309 3.57529C15.1098 3.73363 15.4534 3.96563 15.7419 4.25782C16.3263 4.84366 16.6545 5.63736 16.6545 6.46485C16.6545 7.29234 16.3263 8.08605 15.7419 8.67189L13.5388 10.8828C13.48 10.9403 13.4332 11.009 13.4013 11.0848C13.3694 11.1606 13.353 11.242 13.353 11.3242C13.353 11.4065 13.3694 11.4879 13.4013 11.5637C13.4332 11.6395 13.48 11.7082 13.5388 11.7656C13.5951 11.825 13.663 11.8723 13.7382 11.9045C13.8134 11.9367 13.8945 11.9533 13.9763 11.9531C14.0593 11.953 14.1414 11.9363 14.2178 11.9042C14.2943 11.872 14.3635 11.8249 14.4216 11.7656L16.6325 9.5547C17.4512 8.7332 17.9109 7.62071 17.9109 6.46095C17.9109 5.30118 17.4512 4.18869 16.6325 3.3672Z" fill="black"/>
</g>
<defs>
<clipPath id="clip0_303_714">
<rect width="20" height="20" fill="white"/>
</clipPath>
</defs>
</svg>
