<svg width="12" height="12" viewBox="0 0 12 12" fill="none" xmlns="http://www.w3.org/2000/svg">
<path d="M0.340745 10.2426C-0.0497793 10.6332 -0.0497793 11.2663 0.340745 11.6569C0.731269 12.0474 1.36443 12.0474 1.75496 11.6569L0.340745 10.2426ZM11.9473 1.05025C11.9473 0.497969 11.4996 0.0502539 10.9473 0.0502543L1.94735 0.0502544C1.39506 0.0502541 0.947347 0.497969 0.947347 1.05025C0.947347 1.60254 1.39506 2.05025 1.94735 2.05025L9.94735 2.05025L9.94734 10.0503C9.94734 10.6025 10.3951 11.0503 10.9473 11.0503C11.4996 11.0503 11.9473 10.6025 11.9473 10.0503L11.9473 1.05025ZM1.75496 11.6569L11.6545 1.75736L10.2402 0.343147L0.340745 10.2426L1.75496 11.6569Z" fill="black"/>
</svg>
